<svg width="24" height="24" viewBox="0 0 24 24" fill="none" xmlns="http://www.w3.org/2000/svg">
<path d="M21.25 13V8.5C21.25 7.17392 20.7232 5.90215 19.7855 4.96447C18.8479 4.02678 17.5761 3.5 16.25 3.5H7.75C6.42392 3.5 5.15215 4.02678 4.21447 4.96447C3.27678 5.90215 2.75 7.17392 2.75 8.5V15.5C2.75 16.1566 2.87933 16.8068 3.1306 17.4134C3.38188 18.02 3.75017 18.5712 4.21447 19.0355C5.15215 19.9732 6.42392 20.5 7.75 20.5H14.01M3.01 17L5.75 13.8C6.10984 13.4426 6.58211 13.2205 7.08688 13.1713C7.59165 13.1221 8.09792 13.2488 8.52 13.53C8.94208 13.8112 9.44835 13.9379 9.95312 13.8887C10.4579 13.8395 10.9302 13.6174 11.29 13.26L13.62 10.93C14.2895 10.2582 15.1759 9.84621 16.121 9.76744C17.0662 9.68868 18.0086 9.94831 18.78 10.5L21.25 12.41M18.994 15.5V20.5M16.5 18.005H21.5M8.01 10.17C8.22799 10.1687 8.4436 10.1244 8.64449 10.0398C8.84539 9.95518 9.02765 9.8318 9.18087 9.67673C9.33408 9.52165 9.45526 9.33792 9.53747 9.13602C9.61968 8.93411 9.66131 8.71799 9.66 8.5C9.65869 8.28201 9.61445 8.0664 9.52981 7.86551C9.44518 7.66461 9.3218 7.48235 9.16673 7.32913C9.01165 7.17591 8.82792 7.05474 8.62602 6.97253C8.42411 6.89032 8.20799 6.84869 7.99 6.85C7.54974 6.85265 7.12857 7.03009 6.81913 7.34327C6.5097 7.65646 6.33735 8.07974 6.34 8.52C6.34265 8.96026 6.52009 9.38143 6.83327 9.69087C7.14646 10.0003 7.56974 10.1727 8.01 10.17Z" stroke="black" stroke-width="1.5" stroke-miterlimit="10" stroke-linecap="round" stroke-linejoin="round"/>
</svg>
