<svg width="18" height="17" viewBox="0 0 18 17" fill="none" xmlns="http://www.w3.org/2000/svg">
<path d="M8.76381 0.931755C7.6065 0.319141 5.73982 -0.151945 4.14775 1.81822C0.597474 2.24067 -0.0527288 4.70084 0.652874 6.80057C1.09414 8.11369 2.37622 9.22909 2.85188 9.79222C3.89467 11.0268 3.82297 13.9781 3.77499 14.8716C3.76745 15.0119 3.87873 15.1322 4.01931 15.1322H12.89C13.024 15.1322 13.1319 15.023 13.1306 14.889C13.1184 13.7067 13.1525 11.522 13.7957 10.3548C14.4861 9.10184 17.0754 7.48481 16.6595 5.29196C16.2095 2.91909 14.4421 2.0614 13.6147 1.92917C12.2171 -0.575006 8.76381 0.931755 8.76381 0.931755Z" fill="white"/>
<path d="M3.45983 2.86505C3.68093 2.45725 3.91132 2.11081 4.14775 1.81822M9.86961 1.69183C9.86961 1.69183 9.43657 1.28788 8.76381 0.931755M14.1905 4.55335C14.1737 3.38737 13.9552 2.53924 13.6147 1.92917M8.76381 0.931755C7.6065 0.319141 5.73982 -0.151945 4.14775 1.81822M8.76381 0.931755C8.76381 0.931755 12.2171 -0.575006 13.6147 1.92917M4.14775 1.81822C0.597474 2.24067 -0.0527288 4.70084 0.652874 6.80057C1.09414 8.11369 2.37622 9.22909 2.85188 9.79222C3.89467 11.0268 3.82297 13.9781 3.77499 14.8716C3.76745 15.0119 3.87873 15.1323 4.01931 15.1323H12.89C13.024 15.1323 13.1319 15.023 13.1306 14.889C13.1184 13.7067 13.1525 11.522 13.7957 10.3548C14.4861 9.10184 17.0754 7.48481 16.6595 5.29196C16.2095 2.91909 14.4421 2.0614 13.6147 1.92917" stroke="black" stroke-width="0.8" stroke-linecap="round"/>
<path d="M8.51024 13.5167C9.85854 13.5167 11.0631 13.6971 11.9165 13.9777C12.345 14.1186 12.6632 14.2773 12.8657 14.4347C13.0731 14.5959 13.1039 14.7086 13.104 14.7579C13.104 14.8072 13.0734 14.9197 12.8657 15.0812C12.6631 15.2386 12.3453 15.3982 11.9165 15.5392C11.0631 15.8198 9.85854 16.0001 8.51024 16.0001C7.16222 16.0001 5.95829 15.8197 5.10497 15.5392C4.67612 15.3982 4.35736 15.2387 4.15477 15.0812C3.9473 14.9198 3.91747 14.8071 3.91747 14.7579C3.91758 14.7086 3.94744 14.5959 4.15477 14.4347C4.35736 14.2772 4.67612 14.1187 5.10497 13.9777C5.9583 13.6971 7.16215 13.5167 8.51024 13.5167Z" fill="#B1B0AF" stroke="black" stroke-width="0.8"/>
<path d="M3.69568 3.80888C3.65306 4.48221 3.69057 6.01298 4.1815 6.74939C4.67244 7.4858 5.54522 8.5904 5.92024 9.05066M10.1137 3.29749C10.1137 3.29749 7.71011 5.03622 8.57948 8.89724M11.8268 9.22965C12.5172 7.46534 13.6167 7.05622 13.6167 7.05622" stroke="black" stroke-width="0.8" stroke-linecap="round"/>
<path d="M3.59343 11.1474C7.30103 9.89454 9.88357 10.0224 13.4633 11.1474" stroke="black" stroke-width="0.8" stroke-linecap="round"/>
<path d="M3.88579 12.5536C7.39168 11.3397 9.83372 11.4635 13.2187 12.5536" stroke="black" stroke-width="0.8" stroke-linecap="round"/>
</svg>
