<svg width="19" height="23" viewBox="0 0 19 23" fill="none" xmlns="http://www.w3.org/2000/svg">
<ellipse cx="0.533879" cy="0.223499" rx="0.533879" ry="0.223499" transform="matrix(0.867039 -0.498241 0.501762 0.865006 1.57171 3.03558)" fill="#242423"/>
<path d="M1.2512 7.35502C1.2512 7.35502 -0.364645 4.80574 2.13801 3.12658C4.64067 1.44741 6.29706 4.10354 6.29706 4.10354C6.54752 4.48187 5.22133 5.49317 4.00309 6.236C2.78485 6.97883 1.54678 7.66122 1.2512 7.35502Z" fill="#B1B0AF"/>
<path d="M1.2512 7.35502C1.2512 7.35502 -0.364645 4.80574 2.13801 3.12658C4.64067 1.44741 6.29706 4.10354 6.29706 4.10354M1.2512 7.35502C1.2512 7.35502 1.72665 6.30172 3.41371 5.20263C5.10077 4.10354 6.29706 4.10354 6.29706 4.10354M1.2512 7.35502C1.54678 7.66122 2.78485 6.97883 4.00309 6.236C5.22133 5.49317 6.54752 4.48187 6.29706 4.10354" stroke="#242423" stroke-width="0.5"/>
<path d="M3.63368 6.13695C3.47929 5.80765 3.17968 5.50213 3.04918 5.39054L3.82116 4.86914C3.88917 5.0155 4.09136 5.37846 4.35604 5.65946C4.62072 5.94046 4.93319 6.09487 5.05634 6.13695L4.47735 6.49918L3.82116 6.95471C3.823 6.81933 3.78808 6.46625 3.63368 6.13695Z" fill="#E7E7E6" stroke="#242423" stroke-width="0.5" stroke-linecap="round" stroke-linejoin="round"/>
<path d="M2.13801 3.12658C0.273389 4.37765 0.694988 6.11173 1.03115 6.9146C1.11291 7.10989 1.38623 7.10824 1.5101 6.93654C1.80408 6.52903 2.3826 5.87438 3.41371 5.20263C4.46292 4.51909 5.32231 4.26066 5.82217 4.16295C6.0271 4.12289 6.14341 3.88097 6.00655 3.72327C5.42789 3.05652 4.02299 1.86184 2.13801 3.12658Z" fill="#E7E7E6" stroke="#242423" stroke-width="0.5"/>
<path d="M0.997829 5.89449C0.994983 5.96092 1.019 6.02376 1.06748 6.06907C1.11579 6.1144 1.18461 6.13849 1.2559 6.13615C1.32719 6.13381 1.39428 6.10525 1.43952 6.05686C1.48492 6.00846 1.50476 5.94418 1.49756 5.87808C1.49756 5.87808 1.49756 5.87808 1.49756 5.87808C1.49402 5.85017 1.49145 5.81859 1.48965 5.78849C1.4677 5.2216 1.61194 4.59707 1.99853 4.14489C2.02024 4.11978 2.04229 4.09566 2.06552 4.07178C2.0817 4.05524 2.0908 4.03207 2.09148 4.00811C2.09212 3.98411 2.08428 3.9613 2.06903 3.94393C2.05377 3.92656 2.03216 3.91585 2.00828 3.91338C1.98444 3.91096 1.96028 3.91699 1.94179 3.9309C1.94179 3.9309 1.94179 3.9309 1.94179 3.9309C1.91231 3.95333 1.88393 3.97623 1.85576 4.0004C1.34933 4.44321 1.08249 5.09765 1.00544 5.77574C1.00183 5.8136 0.999117 5.85464 0.997829 5.89449Z" fill="#242423"/>
<path d="M1.35963 6.19856C1.34734 6.19272 1.32669 6.18814 1.30884 6.18506C1.2906 6.18203 1.27664 6.18075 1.2634 6.18226C1.25017 6.18378 1.23686 6.18818 1.21977 6.19526C1.20307 6.2023 1.18398 6.21143 1.17332 6.21989C1.17332 6.21989 1.17332 6.21989 1.17332 6.21989C1.17091 6.22183 1.16851 6.22376 1.16611 6.22569C1.12288 6.26046 1.07965 6.29522 1.03642 6.32999C1.03402 6.33192 1.03162 6.33385 1.02921 6.33578C0.931019 6.41375 0.871779 6.48453 0.925432 6.52557C0.975548 6.56701 1.13431 6.57534 1.30588 6.5557C1.47745 6.53605 1.63026 6.49205 1.66978 6.44034C1.71284 6.38823 1.63923 6.33266 1.52605 6.2789C1.52605 6.2789 1.52605 6.2789 1.52605 6.2789C1.52327 6.27756 1.5205 6.27622 1.51773 6.27488C1.4678 6.25078 1.41787 6.22668 1.36795 6.20258C1.36518 6.20124 1.3624 6.1999 1.35963 6.19856Z" fill="#242423"/>
<ellipse cx="0.533879" cy="0.223499" rx="0.533879" ry="0.223499" transform="matrix(-0.867039 -0.498241 -0.501762 0.865006 16.7187 3.03558)" fill="#242423"/>
<path d="M17.0392 7.35502C17.0392 7.35502 18.655 4.80574 16.1524 3.12658C13.6497 1.44741 11.9933 4.10354 11.9933 4.10354C11.7428 4.48187 13.069 5.49317 14.2873 6.236C15.5055 6.97883 16.7436 7.66122 17.0392 7.35502Z" fill="#B1B0AF"/>
<path d="M17.0392 7.35502C17.0392 7.35502 18.655 4.80574 16.1524 3.12658C13.6497 1.44741 11.9933 4.10354 11.9933 4.10354M17.0392 7.35502C17.0392 7.35502 16.5637 6.30172 14.8767 5.20263C13.1896 4.10354 11.9933 4.10354 11.9933 4.10354M17.0392 7.35502C16.7436 7.66122 15.5055 6.97883 14.2873 6.236C13.069 5.49317 11.7428 4.48187 11.9933 4.10354" stroke="#242423" stroke-width="0.5"/>
<path d="M14.6567 6.13695C14.8111 5.80765 15.1107 5.50213 15.2412 5.39054L14.4692 4.86914C14.4012 5.0155 14.199 5.37846 13.9343 5.65946C13.6697 5.94046 13.3572 6.09487 13.234 6.13695L13.813 6.49918L14.4692 6.95471C14.4674 6.81933 14.5023 6.46625 14.6567 6.13695Z" fill="#E7E7E6" stroke="#242423" stroke-width="0.5" stroke-linecap="round" stroke-linejoin="round"/>
<path d="M16.1524 3.12658C18.017 4.37765 17.5954 6.11173 17.2592 6.9146C17.1775 7.10989 16.9041 7.10824 16.7803 6.93654C16.4863 6.52903 15.9078 5.87438 14.8767 5.20263C13.8275 4.51909 12.9681 4.26066 12.4682 4.16295C12.2633 4.12289 12.147 3.88097 12.2838 3.72327C12.8625 3.05652 14.2674 1.86184 16.1524 3.12658Z" fill="#E7E7E6" stroke="#242423" stroke-width="0.5"/>
<path d="M9.08656 5.46206L9.87492 2.56794H8.29821L9.08656 5.46206Z" fill="#E7E7E6"/>
<path d="M10.8239 2.08301C10.8239 2.5336 10.046 2.89887 9.08656 2.89887C8.12707 2.89887 7.34926 2.5336 7.34926 2.08301C7.34926 1.63242 8.12707 1.26715 9.08656 1.26715C10.046 1.26715 10.8239 1.63242 10.8239 2.08301Z" fill="#242423"/>
<path d="M9.79542 5.26603C9.79542 5.50409 9.47805 5.69708 9.08656 5.69708C8.69507 5.69708 8.3777 5.50409 8.3777 5.26603C8.3777 5.02797 8.69507 4.83498 9.08656 4.83498C9.47805 4.83498 9.79542 5.02797 9.79542 5.26603Z" fill="#242423"/>
<path d="M9.08656 1.01715C9.59461 1.01715 10.067 1.11337 10.4215 1.27985C10.7561 1.43699 11.0736 1.7036 11.0739 2.08258C11.0739 2.4618 10.7562 2.72909 10.4215 2.88629C10.2967 2.94489 10.1569 2.9937 10.0065 3.03375L9.5602 4.67145C9.61585 4.69322 9.66878 4.71806 9.71742 4.74762C9.88647 4.85042 10.0455 5.02648 10.0455 5.26617C10.0455 5.50579 9.88644 5.68195 9.71742 5.78473C9.57624 5.8705 9.40149 5.92101 9.21547 5.93805L9.08656 6.41364L8.95668 5.93805C8.77102 5.92091 8.59664 5.87035 8.4557 5.78473C8.28669 5.68195 8.12764 5.50579 8.12758 5.26617C8.12758 5.02648 8.28666 4.85042 8.4557 4.74762C8.5041 4.71821 8.55661 4.69315 8.61195 4.67145L8.16566 3.03375C8.01563 2.99374 7.87614 2.94478 7.7516 2.88629C7.41693 2.72909 7.09926 2.46181 7.09926 2.08258C7.0995 1.7036 7.41707 1.43699 7.7516 1.27985C8.10611 1.11336 8.57851 1.01715 9.08656 1.01715Z" stroke="#242423" stroke-width="0.5"/>
<path d="M17.5736 13.4535C17.5736 18.1188 13.7738 21.9008 9.08656 21.9008C4.39931 21.9008 0.599545 18.1188 0.599545 13.4535C0.599545 8.78825 4.39931 5.00629 9.08656 5.00629C13.7738 5.00629 17.5736 8.78825 17.5736 13.4535Z" fill="white"/>
<path d="M16.3885 13.4535C16.3885 17.4674 13.1193 20.7213 9.08655 20.7213C5.0538 20.7213 1.78462 17.4674 1.78462 13.4535C1.78462 9.43968 5.0538 6.18581 9.08655 6.18581C13.1193 6.18581 16.3885 9.43968 16.3885 13.4535Z" fill="#E7E7E6"/>
<path d="M15.5928 13.4535C15.5928 17.03 12.6798 19.9293 9.08654 19.9293C5.49324 19.9293 2.5803 17.03 2.5803 13.4535C2.5803 9.87707 5.49324 6.97777 9.08654 6.97777C12.6798 6.97777 15.5928 9.87707 15.5928 13.4535Z" fill="white"/>
<path d="M8.81607 7.71398C8.81607 7.56707 8.93572 7.44798 9.08332 7.44798C9.23092 7.44798 9.35057 7.56707 9.35057 7.71398V8.37898C9.35057 8.52589 9.23092 8.64498 9.08332 8.64498C8.93572 8.64498 8.81607 8.52589 8.81607 8.37898V7.71398Z" fill="#242423"/>
<path d="M14.7624 13.1005C14.91 13.1005 15.0297 13.2196 15.0297 13.3665C15.0297 13.5134 14.91 13.6325 14.7624 13.6325H14.0943C13.9467 13.6325 13.827 13.5134 13.827 13.3665C13.827 13.2196 13.9467 13.1005 14.0943 13.1005H14.7624Z" fill="#242423"/>
<path d="M9.35057 19.019C9.35057 19.1659 9.23092 19.285 9.08332 19.285C8.93572 19.285 8.81607 19.1659 8.81607 19.019V18.354C8.81607 18.2071 8.93572 18.088 9.08332 18.088C9.23092 18.088 9.35057 18.2071 9.35057 18.354V19.019Z" fill="#242423"/>
<path d="M3.40422 13.6325C3.25662 13.6325 3.13697 13.5134 3.13697 13.3665C3.13697 13.2196 3.25662 13.1005 3.40422 13.1005H4.07235C4.21995 13.1005 4.3396 13.2196 4.3396 13.3665C4.3396 13.5134 4.21995 13.6325 4.07235 13.6325H3.40422Z" fill="#242423"/>
<path d="M17.5736 13.4535C17.5736 18.1188 13.7738 21.9008 9.08656 21.9008C4.39931 21.9008 0.599545 18.1188 0.599545 13.4535C0.599545 8.78825 4.39931 5.00629 9.08656 5.00629C13.7738 5.00629 17.5736 8.78825 17.5736 13.4535Z" stroke="#242423" stroke-width="0.5"/>
<path d="M16.3885 13.4535C16.3885 17.4674 13.1193 20.7213 9.08655 20.7213C5.0538 20.7213 1.78462 17.4674 1.78462 13.4535C1.78462 9.43968 5.0538 6.18581 9.08655 6.18581C13.1193 6.18581 16.3885 9.43968 16.3885 13.4535Z" stroke="#242423" stroke-width="0.5"/>
<path d="M15.5928 13.4535C15.5928 17.03 12.6798 19.9293 9.08654 19.9293C5.49324 19.9293 2.5803 17.03 2.5803 13.4535C2.5803 9.87707 5.49324 6.97777 9.08654 6.97777C12.6798 6.97777 15.5928 9.87707 15.5928 13.4535Z" stroke="#242423" stroke-width="0.5"/>
<path d="M8.81607 7.71398C8.81607 7.56707 8.93572 7.44798 9.08332 7.44798C9.23092 7.44798 9.35057 7.56707 9.35057 7.71398V8.37898C9.35057 8.52589 9.23092 8.64498 9.08332 8.64498C8.93572 8.64498 8.81607 8.52589 8.81607 8.37898V7.71398Z" stroke="#242423" stroke-width="0.5"/>
<path d="M14.7624 13.1005C14.91 13.1005 15.0297 13.2196 15.0297 13.3665C15.0297 13.5134 14.91 13.6325 14.7624 13.6325H14.0943C13.9467 13.6325 13.827 13.5134 13.827 13.3665C13.827 13.2196 13.9467 13.1005 14.0943 13.1005H14.7624Z" stroke="#242423" stroke-width="0.5"/>
<path d="M9.35057 19.019C9.35057 19.1659 9.23092 19.285 9.08332 19.285C8.93572 19.285 8.81607 19.1659 8.81607 19.019V18.354C8.81607 18.2071 8.93572 18.088 9.08332 18.088C9.23092 18.088 9.35057 18.2071 9.35057 18.354V19.019Z" stroke="#242423" stroke-width="0.5"/>
<path d="M3.40422 13.6325C3.25662 13.6325 3.13697 13.5134 3.13697 13.3665C3.13697 13.2196 3.25662 13.1005 3.40422 13.1005H4.07235C4.21995 13.1005 4.3396 13.2196 4.3396 13.3665C4.3396 13.5134 4.21995 13.6325 4.07235 13.6325H3.40422Z" stroke="#242423" stroke-width="0.5"/>
<path d="M9.07583 9.64675C9.22342 9.64605 9.34367 9.76456 9.34439 9.91145L9.35666 12.4925C9.35731 12.6393 9.23828 12.7591 9.09071 12.7598C8.94313 12.7605 8.82286 12.6417 8.82215 12.4948L8.80989 9.91405C8.80918 9.76715 8.92825 9.64747 9.07583 9.64675Z" fill="#242423"/>
<path d="M9.02084 9.4104C9.05293 9.37069 9.11369 9.37069 9.14578 9.4104L9.68108 10.0728C9.72328 10.125 9.68594 10.2026 9.61861 10.2026H8.54801C8.48068 10.2026 8.44333 10.125 8.48553 10.0728L9.02084 9.4104Z" fill="#242423"/>
<ellipse cx="9.08655" cy="13.4535" rx="0.603221" ry="0.600395" fill="#242423"/>
<path d="M12.3919 15.3323C12.3187 15.4599 12.1555 15.5043 12.0273 15.4314L9.77542 14.1515C9.64731 14.0786 9.60264 13.9162 9.67582 13.7886C9.74902 13.6611 9.91248 13.6168 10.0406 13.6896L12.2923 14.9694C12.4205 15.0423 12.4651 15.2047 12.3919 15.3323Z" fill="#242423"/>
<path d="M12.6251 15.4031C12.6436 15.4506 12.6132 15.503 12.5626 15.5108L11.7186 15.641C11.6521 15.6513 11.6032 15.5803 11.6369 15.5222L12.1722 14.5994C12.2059 14.5414 12.2921 14.548 12.3164 14.6105L12.6251 15.4031Z" fill="#242423"/>
</svg>
