<svg width="18" height="18" viewBox="0 0 18 18" fill="none" xmlns="http://www.w3.org/2000/svg">
<path d="M12.6368 5.8611C13.3803 3.92316 14.6549 2.96984 15.1077 2.67995C15.2026 2.61922 15.3247 2.64287 15.3969 2.72934L15.6889 3.07901L15.7567 3.03695C15.8591 2.9734 15.9928 2.99564 16.069 3.08893L16.2279 3.2832L16.3312 3.23134C16.4392 3.1771 16.5707 3.21163 16.6381 3.31194L16.6837 3.37987C16.724 3.43983 16.7352 3.51474 16.7141 3.58383L16.4094 4.58193C16.389 4.64865 16.3406 4.70321 16.2768 4.73139L13.0394 6.161L12.8461 6.01701C12.8461 6.01701 11.7211 8.24756 12.6368 5.8611Z" fill="white"/>
<path d="M15.6889 3.07901L15.3969 2.72934C15.3247 2.64287 15.2026 2.61922 15.1077 2.67995C14.6549 2.96984 13.3803 3.92316 12.6368 5.8611C11.7211 8.24756 12.8461 6.01701 12.8461 6.01701M15.6889 3.07901L15.7567 3.03695C15.8591 2.9734 15.9928 2.99564 16.069 3.08893L16.2279 3.2832M15.6889 3.07901C15.6889 3.07901 14.4616 3.47463 12.8461 6.01701M16.2279 3.2832L16.3312 3.23134C16.4392 3.1771 16.5707 3.21163 16.6381 3.31194L16.6837 3.37987C16.724 3.43983 16.7352 3.51474 16.7141 3.58383L16.4094 4.58193C16.389 4.64865 16.3406 4.70321 16.2768 4.73139L13.0394 6.161M16.2279 3.2832C16.2279 3.2832 15.2733 3.67244 13.0394 6.161M13.0394 6.161L12.8461 6.01701" stroke="black" stroke-width="0.36"/>
<path d="M6.1665 2.44385C6.80535 2.47737 9.28215 2.80832 12.7546 5.79475C16.6201 9.11921 12.7149 6.41961 12.3441 6.16185C12.3238 6.14777 12.3044 6.13881 12.2808 6.13147L5.32208 3.96382C5.19267 3.92351 5.12229 3.7841 5.1667 3.65604L5.40822 2.95957C5.44428 2.85557 5.55704 2.79967 5.66165 2.83393C5.76717 2.86849 5.88079 2.8113 5.91587 2.70595L5.95223 2.59678C5.98352 2.50285 6.06763 2.43867 6.1665 2.44385Z" fill="white" stroke="black" stroke-width="0.36"/>
<path d="M5.69348 2.84446C5.69348 2.84446 8.35576 2.84446 12.4722 6.05949" stroke="black" stroke-width="0.36"/>
<path d="M12.379 5.86037L4.93427 3.67775C4.80288 3.63923 4.66594 3.71826 4.63355 3.8513L2.05733 14.4356C2.02804 14.556 2.09514 14.6788 2.21223 14.7193L9.34247 17.18C9.38049 17.1931 9.42119 17.1964 9.46084 17.1897L10.8212 16.9594C10.8594 16.9529 10.8955 16.9373 10.9263 16.9138L13.8458 14.6963C13.8871 14.6649 13.9171 14.621 13.9314 14.5712L17.0017 3.83943C17.0652 3.61759 16.8096 3.44274 16.6258 3.58228L13.9577 5.6084C13.926 5.63247 13.8888 5.64828 13.8495 5.65441L12.4835 5.86721C12.4486 5.87264 12.4129 5.87031 12.379 5.86037Z" fill="#E7E7E6" stroke="#242423" stroke-width="0.72"/>
<line x1="0.24" y1="-0.24" x2="8.21179" y2="-0.24" transform="matrix(-0.256092 0.966653 -0.968809 -0.24781 11.637 8.6579)" stroke="#242423" stroke-width="0.48" stroke-linecap="round"/>
<line x1="0.24" y1="-0.24" x2="9.59597" y2="-0.24" transform="matrix(0.278719 -0.960373 0.962912 0.269817 11.2401 15.4632)" stroke="#242423" stroke-width="0.48" stroke-linecap="round"/>
<path d="M8.08162 7.32209C7.77422 7.0347 7.23865 6.72953 6.59954 7.19575C5.47959 7.01915 5.09132 7.71663 5.14604 8.42057C5.18027 8.8608 5.48724 9.31293 5.58965 9.52641C5.77857 9.92022 5.63234 10.6183 5.53155 10.9904C5.4948 11.126 5.57303 11.2728 5.70841 11.3109L8.09395 11.9822C8.22294 12.0185 8.35302 11.9412 8.38661 11.8115C8.48358 11.4371 8.65053 10.9033 8.89859 10.6419C9.20637 10.3177 10.1238 10.0456 10.165 9.33809C10.2095 8.57252 9.7341 8.1575 9.49082 8.04568C9.25521 7.15822 8.08162 7.32209 8.08162 7.32209Z" fill="white"/>
<path d="M6.30836 7.45709C6.40743 7.35124 6.50463 7.26499 6.59954 7.19575M8.36191 7.6502C8.36191 7.6502 8.26032 7.48915 8.08162 7.32209M9.46547 8.89907C9.54995 8.54049 9.54822 8.26189 9.49082 8.04568M8.08162 7.32209C7.77422 7.0347 7.23865 6.72953 6.59954 7.19575M8.08162 7.32209C8.08162 7.32209 9.25521 7.15822 9.49082 8.04568M6.59954 7.19575C5.47959 7.01915 5.09132 7.71663 5.14604 8.42057C5.18027 8.8608 5.48724 9.31293 5.58965 9.52641C5.77857 9.92022 5.63234 10.6183 5.53155 10.9904C5.4948 11.126 5.57303 11.2728 5.70841 11.3109L8.09395 11.9822C8.22294 12.0185 8.35302 11.9412 8.38661 11.8115C8.48358 11.4371 8.65053 10.9033 8.89859 10.6419C9.20637 10.3177 10.1238 10.0456 10.165 9.33809C10.2095 8.57252 9.7341 8.1575 9.49082 8.04568" stroke="black" stroke-width="0.36" stroke-linecap="round"/>
<path d="M7.03051 11.197C7.44022 11.3125 7.7903 11.4702 8.0248 11.6264C8.14274 11.7049 8.22292 11.7777 8.2679 11.8369C8.31419 11.8979 8.30499 11.9182 8.30676 11.9107C8.30883 11.9024 8.30825 11.9245 8.23871 11.9534C8.17198 11.9811 8.06849 12.002 7.92916 12.0081C7.65251 12.0202 7.27488 11.9727 6.86511 11.8572C6.45533 11.7417 6.10532 11.5841 5.87083 11.4279C5.75273 11.3492 5.67267 11.2766 5.62773 11.2174C5.58089 11.1557 5.5907 11.1362 5.58863 11.1445C5.58665 11.152 5.58818 11.1295 5.65691 11.1009C5.72365 11.0732 5.82728 11.0523 5.96646 11.0462C6.2431 11.0341 6.6208 11.0815 7.03051 11.197Z" fill="#B1B0AF" stroke="black" stroke-width="0.36"/>
<path d="M6.3056 7.76679C6.24074 7.9696 6.13447 8.44229 6.22832 8.7105C6.32217 8.9787 6.50475 9.39278 6.58431 9.56629M8.31245 8.16381C8.31245 8.16381 7.44185 8.48962 7.41133 9.74873M8.38127 10.1309C8.72864 9.64942 9.09718 9.61884 9.09718 9.61884" stroke="black" stroke-width="0.36" stroke-linecap="round"/>
<path d="M5.71158 9.9998C6.9466 9.93509 7.72974 10.1989 8.74226 10.8572" stroke="black" stroke-width="0.36" stroke-linecap="round"/>
<path d="M5.69463 10.4543C6.86469 10.3842 7.605 10.6345 8.5604 11.2651" stroke="black" stroke-width="0.36" stroke-linecap="round"/>
<mask id="path-14-outside-1_462_83" maskUnits="userSpaceOnUse" x="-0.800003" y="-0.799988" width="10" height="10" fill="black">
<rect fill="white" x="-0.800003" y="-0.799988" width="10" height="10"/>
<path d="M4.23027 1.20001C4.48118 1.20001 4.68509 1.40327 4.68535 1.65411V3.25126C4.68535 3.51636 4.90025 3.73126 5.16535 3.73126H6.81425C7.06084 3.73126 7.26134 3.93101 7.26152 4.17755C7.26152 4.42425 7.06095 4.62482 6.81425 4.62482H5.16535C4.90025 4.62482 4.68535 4.83972 4.68535 5.10482V6.70099C4.68535 6.95205 4.48133 7.15607 4.23027 7.15607C3.97939 7.15585 3.77617 6.95192 3.77617 6.70099V5.10482C3.77617 4.83972 3.56127 4.62482 3.29617 4.62482H1.64629C1.39979 4.62458 1.2 4.4241 1.2 4.17755C1.20018 3.93116 1.3999 3.7315 1.64629 3.73126H3.29617C3.56127 3.73126 3.77617 3.51636 3.77617 3.25126V1.65411C3.77643 1.4034 3.97955 1.20023 4.23027 1.20001Z"/>
</mask>
<path d="M4.23027 1.20001C4.48118 1.20001 4.68509 1.40327 4.68535 1.65411V3.25126C4.68535 3.51636 4.90025 3.73126 5.16535 3.73126H6.81425C7.06084 3.73126 7.26134 3.93101 7.26152 4.17755C7.26152 4.42425 7.06095 4.62482 6.81425 4.62482H5.16535C4.90025 4.62482 4.68535 4.83972 4.68535 5.10482V6.70099C4.68535 6.95205 4.48133 7.15607 4.23027 7.15607C3.97939 7.15585 3.77617 6.95192 3.77617 6.70099V5.10482C3.77617 4.83972 3.56127 4.62482 3.29617 4.62482H1.64629C1.39979 4.62458 1.2 4.4241 1.2 4.17755C1.20018 3.93116 1.3999 3.7315 1.64629 3.73126H3.29617C3.56127 3.73126 3.77617 3.51636 3.77617 3.25126V1.65411C3.77643 1.4034 3.97955 1.20023 4.23027 1.20001Z" fill="#FFFCF2"/>
<path d="M4.23027 1.20001V1.16825e-05L4.22924 1.26362e-05L4.23027 1.20001ZM4.68535 1.65411H5.88535L5.88535 1.65289L4.68535 1.65411ZM7.26152 4.17755H8.46152L8.46152 4.17668L7.26152 4.17755ZM4.23027 7.15607L4.22924 8.35607H4.23027V7.15607ZM1.64629 4.62482L1.64512 5.82482H1.64629V4.62482ZM1.2 4.17755L-3.09944e-06 4.17668V4.17755H1.2ZM1.64629 3.73126V2.53126L1.64512 2.53126L1.64629 3.73126ZM3.77617 1.65411L2.57617 1.65289V1.65411H3.77617ZM4.23027 1.20001V2.40001C3.82057 2.40001 3.48577 2.06841 3.48535 1.65534L4.68535 1.65411L5.88535 1.65289C5.88441 0.738125 5.14178 1.21593e-05 4.23027 1.21593e-05V1.20001ZM4.68535 1.65411H3.48535V3.25126H4.68535H5.88535V1.65411H4.68535ZM5.16535 3.73126V4.93126H6.81425V3.73126V2.53126H5.16535V3.73126ZM6.81425 3.73126V4.93126C6.40064 4.93126 6.06183 4.59648 6.06152 4.17843L7.26152 4.17755L8.46152 4.17668C8.46086 3.26553 7.72104 2.53126 6.81425 2.53126V3.73126ZM7.26152 4.17755H6.06152C6.06152 3.76151 6.39821 3.42482 6.81425 3.42482V4.62482V5.82482C7.72369 5.82482 8.46152 5.08699 8.46152 4.17755H7.26152ZM6.81425 4.62482V3.42482H5.16535V4.62482V5.82482H6.81425V4.62482ZM4.68535 5.10482H3.48535V6.70099H4.68535H5.88535V5.10482H4.68535ZM4.68535 6.70099H3.48535C3.48535 6.28931 3.81859 5.95607 4.23027 5.95607V7.15607V8.35607C5.14408 8.35607 5.88535 7.61479 5.88535 6.70099H4.68535ZM4.23027 7.15607L4.2313 5.95607C4.64469 5.95642 4.97617 6.29151 4.97617 6.70099H3.77617H2.57617C2.57617 7.61233 3.31409 8.35528 4.22924 8.35607L4.23027 7.15607ZM3.77617 6.70099H4.97617V5.10482H3.77617H2.57617V6.70099H3.77617ZM3.29617 4.62482V3.42482H1.64629V4.62482V5.82482H3.29617V4.62482ZM1.64629 4.62482L1.64745 3.42482C2.06505 3.42522 2.4 3.76362 2.4 4.17755H1.2H-3.09944e-06C-3.09944e-06 5.08458 0.73454 5.82394 1.64512 5.82482L1.64629 4.62482ZM1.2 4.17755L2.4 4.17843C2.39969 4.59438 2.06261 4.93086 1.64745 4.93126L1.64629 3.73126L1.64512 2.53126C0.737195 2.53214 0.000660539 3.26794 -2.74181e-06 4.17668L1.2 4.17755ZM1.64629 3.73126V4.93126H3.29617V3.73126V2.53126H1.64629V3.73126ZM3.77617 3.25126H4.97617V1.65411H3.77617H2.57617V3.25126H3.77617ZM3.77617 1.65411L4.97617 1.65534C4.97575 2.06621 4.64271 2.39966 4.2313 2.40001L4.23027 1.20001L4.22924 1.26362e-05C3.31638 0.000795245 2.5771 0.740588 2.57617 1.65289L3.77617 1.65411ZM3.29617 3.73126V4.93126C4.22401 4.93126 4.97617 4.1791 4.97617 3.25126H3.77617H2.57617C2.57617 2.85362 2.89852 2.53126 3.29617 2.53126V3.73126ZM3.77617 5.10482H4.97617C4.97617 4.17698 4.22401 3.42482 3.29617 3.42482V4.62482V5.82482C2.89852 5.82482 2.57617 5.50246 2.57617 5.10482H3.77617ZM5.16535 4.62482V3.42482C4.23751 3.42482 3.48535 4.17698 3.48535 5.10482H4.68535H5.88535C5.88535 5.50246 5.56299 5.82482 5.16535 5.82482V4.62482ZM4.68535 3.25126H3.48535C3.48535 4.1791 4.23751 4.93126 5.16535 4.93126V3.73126V2.53126C5.56299 2.53126 5.88535 2.85362 5.88535 3.25126H4.68535Z" fill="#242423" mask="url(#path-14-outside-1_462_83)"/>
</svg>
