<svg width="24" height="24" viewBox="0 0 24 24" fill="none" xmlns="http://www.w3.org/2000/svg">
<path fill-rule="evenodd" clip-rule="evenodd" d="M13.896 3.03002C14.2499 2.67607 14.7236 2.46769 15.2237 2.44603C15.7238 2.42437 16.2138 2.591 16.597 2.91302L16.724 3.03002L20.967 7.27302C21.3206 7.62688 21.5288 8.10044 21.5505 8.60027C21.5722 9.10009 21.4057 9.58989 21.084 9.97302L20.967 10.101L10.653 20.415C10.3209 20.747 9.88269 20.9516 9.41497 20.993L9.23897 21H4.00597C3.75715 21 3.51708 20.9082 3.3318 20.7421C3.14652 20.576 3.02907 20.3474 3.00197 20.1L2.99597 19.99V14.757C2.99609 14.2875 3.16141 13.8329 3.46297 13.473L3.58297 13.343L13.896 3.03002ZM4.99597 14.758V19H9.23997L16.414 11.826L12.171 7.58302L4.99597 14.758ZM15.31 4.44402L13.584 6.17002L17.827 10.413L19.553 8.68702L15.31 4.44402Z" fill="black"/>
</svg>
