<svg width="24" height="24" viewBox="0 0 24 24" fill="none" xmlns="http://www.w3.org/2000/svg">
<path d="M5.115 15.4313V18.3068C5.99357 19.3837 7.10094 20.2515 8.35672 20.8471C9.61249 21.4426 10.9851 21.7511 12.375 21.75C15.618 21.75 18.477 20.103 20.16 17.6003V13.5698C19.584 17.352 16.3177 20.25 12.375 20.25C9.1095 20.25 6.30825 18.2625 5.115 15.4313ZM18.7725 7.78201V6.49051C18.77 6.20565 18.8167 5.92249 18.9105 5.65351C17.1623 3.94923 14.8165 2.99681 12.375 3.00001C10.1901 2.99677 8.07332 3.75979 6.393 5.15626L6.39675 5.20201L6.3975 5.22226V7.24726C7.13622 6.38469 8.0531 5.69244 9.085 5.21818C10.1169 4.74392 11.2393 4.49891 12.375 4.50001C15.0105 4.50001 17.343 5.79451 18.7725 7.78201Z" fill="#111111"/>
<path d="M18.375 12.375C18.375 13.9663 17.7429 15.4925 16.6176 16.6177C15.4924 17.7429 13.9663 18.375 12.375 18.375C10.7837 18.375 9.25758 17.7429 8.13236 16.6177C7.00714 15.4925 6.375 13.9663 6.375 12.375C6.375 10.7837 7.00714 9.25761 8.13236 8.1324C9.25758 7.00718 10.7837 6.37504 12.375 6.37504C13.9663 6.37504 15.4924 7.00718 16.6176 8.1324C17.7429 9.25761 18.375 10.7837 18.375 12.375ZM12.375 17.625C13.0644 17.625 13.7471 17.4892 14.3841 17.2254C15.021 16.9616 15.5998 16.5749 16.0873 16.0873C16.5748 15.5998 16.9615 15.0211 17.2254 14.3841C17.4892 13.7472 17.625 13.0645 17.625 12.375C17.625 11.6856 17.4892 11.0029 17.2254 10.3659C16.9615 9.72899 16.5748 9.15023 16.0873 8.66273C15.5998 8.17522 15.021 7.78851 14.3841 7.52467C13.7471 7.26083 13.0644 7.12504 12.375 7.12504C10.9826 7.12504 9.64725 7.67816 8.66269 8.66273C7.67812 9.64729 7.125 10.9827 7.125 12.375C7.125 13.7674 7.67812 15.1028 8.66269 16.0873C9.64725 17.0719 10.9826 17.625 12.375 17.625ZM22.4925 5.95504C22.4925 5.28004 21.945 4.73254 21.27 4.73254C20.295 4.73254 19.515 5.52004 19.5225 6.48754V10.65C19.5225 11.5898 20.067 12.4313 20.91 12.8123V19.275C20.91 19.665 21.225 19.98 21.615 19.98H21.7875C22.1775 19.98 22.4925 19.665 22.4925 19.275V5.95504ZM5.115 4.73254C4.97974 4.73254 4.85002 4.78627 4.75438 4.88191C4.65873 4.97756 4.605 5.10728 4.605 5.24254V7.26004C4.605 7.41004 4.485 7.52254 4.3425 7.52254C4.1925 7.52254 4.08 7.40254 4.08 7.26004V5.26504C4.08 4.98754 3.8625 4.74004 3.585 4.73254C3.2925 4.72504 3.0525 4.95754 3.0525 5.24254V7.26004C3.0525 7.41004 2.9325 7.52254 2.79 7.52254C2.64 7.52254 2.5275 7.40254 2.5275 7.26004V5.26504C2.5275 4.98754 2.31 4.74004 2.0325 4.73254C1.74 4.72504 1.5 4.95754 1.5 5.24254V8.67754C1.5 9.35404 1.82775 9.95779 2.33175 10.3343C2.7825 10.5885 2.7825 11.7525 2.7825 11.7525V19.2675C2.7825 19.6575 3.0975 19.9725 3.4875 19.9725H3.66C4.05 19.9725 4.365 19.6575 4.365 19.2675V11.7525C4.365 11.7525 4.365 10.6343 4.81575 10.3343C5.07363 10.1418 5.28307 9.89182 5.42745 9.60423C5.57184 9.31663 5.64718 8.99934 5.6475 8.67754V5.24254C5.63991 5.10587 5.58069 4.97719 5.48184 4.88251C5.38299 4.78783 5.25187 4.73423 5.115 4.73254Z" fill="#111111"/>
</svg>
